<svg width="700pt" height="700pt" viewBox="0 0 700 700" xmlns="http://www.w3.org/2000/svg" xmlns:xlink="http://www.w3.org/1999/xlink"><path d="M228.86 232.37a7.792 7.792 0 012.652-6.25 8.787 8.787 0 0112.203.355l106.11 115.89 106.11-115.89a8.782 8.782 0 0112.2-.355 8.366 8.366 0 01.648 11.789l-112.53 122.85a8.795 8.795 0 01-6.281 2.64 8.792 8.792 0 01-6.278-2.64l-112.88-122.79a8.938 8.938 0 01-1.945-5.598z"/><use x="70" y="648.422" xlink:href="#x"/><use x="91.629" y="648.422" xlink:href="#c"/><use x="106.164" y="648.422" xlink:href="#a"/><use x="126.156" y="648.422" xlink:href="#e"/><use x="146.043" y="648.422" xlink:href="#b"/><use x="160.133" y="648.422" xlink:href="#a"/><use x="180.125" y="648.422" xlink:href="#l"/><use x="211.48" y="648.422" xlink:href="#k"/><use x="232.582" y="648.422" xlink:href="#j"/><use x="262.055" y="648.422" xlink:href="#i"/><use x="284.863" y="648.422" xlink:href="#h"/><use x="305.848" y="648.422" xlink:href="#w"/><use x="326.945" y="648.422" xlink:href="#v"/><use x="344.488" y="648.422" xlink:href="#b"/><use x="358.578" y="648.422" xlink:href="#a"/><use x="378.566" y="648.422" xlink:href="#g"/><use x="409.813" y="648.422" xlink:href="#u"/><use x="434.004" y="648.422" xlink:href="#c"/><use x="448.539" y="648.422" xlink:href="#e"/><use x="468.426" y="648.422" xlink:href="#f"/><use x="481.25" y="648.422" xlink:href="#t"/><use x="491.352" y="648.422" xlink:href="#s"/><use x="70" y="677.895" xlink:href="#f"/><use x="82.824" y="677.895" xlink:href="#c"/><use x="97.359" y="677.895" xlink:href="#d"/><use x="117.605" y="677.895" xlink:href="#r"/><use x="158.578" y="677.895" xlink:href="#b"/><use x="172.668" y="677.895" xlink:href="#q"/><use x="193.652" y="677.895" xlink:href="#a"/><use x="223.902" y="677.895" xlink:href="#p"/><use x="248.57" y="677.895" xlink:href="#d"/><use x="268.816" y="677.895" xlink:href="#h"/><use x="289.801" y="677.895" xlink:href="#g"/><use x="321.043" y="677.895" xlink:href="#o"/><use x="342.645" y="677.895" xlink:href="#c"/><use x="357.18" y="677.895" xlink:href="#d"/><use x="377.43" y="677.895" xlink:href="#n"/><use x="387.531" y="677.895" xlink:href="#a"/><use x="407.523" y="677.895" xlink:href="#m"/><use x="424.992" y="677.895" xlink:href="#b"/></svg>